<?xml version="1.0" encoding="UTF-8" standalone="no"?><!DOCTYPE svg PUBLIC "-//W3C//DTD SVG 1.1//EN" "http://www.w3.org/Graphics/SVG/1.1/DTD/svg11.dtd"><svg xmlns="http://www.w3.org/2000/svg" xmlns:xlink="http://www.w3.org/1999/xlink"><line x1="400.0000pt" y1="400.0000pt" x2="450.0000pt" y2="400.0000pt" style="stroke:#de3163" />
<line x1="450.0000pt" y1="400.0000pt" x2="400.1903pt" y2="404.3578pt" style="stroke:#de3163" />
<line x1="400.1903pt" y1="404.3578pt" x2="449.4307pt" y2="395.6754pt" style="stroke:#de3163" />
<line x1="449.4307pt" y1="395.6754pt" x2="401.1344pt" y2="408.6163pt" style="stroke:#de3163" />
<line x1="401.1344pt" y1="408.6163pt" x2="448.1190pt" y2="391.5153pt" style="stroke:#de3163" />
<line x1="448.1190pt" y1="391.5153pt" x2="402.8036pt" y2="412.6462pt" style="stroke:#de3163" />
<line x1="402.8036pt" y1="412.6462pt" x2="446.1049pt" y2="387.6463pt" style="stroke:#de3163" />
<line x1="446.1049pt" y1="387.6463pt" x2="405.1473pt" y2="416.3251pt" style="stroke:#de3163" />
<line x1="405.1473pt" y1="416.3251pt" x2="443.4496pt" y2="384.1858pt" style="stroke:#de3163" />
<line x1="443.4496pt" y1="384.1858pt" x2="408.0942pt" y2="419.5410pt" style="stroke:#de3163" />
<line x1="408.0942pt" y1="419.5410pt" x2="440.2336pt" y2="381.2388pt" style="stroke:#de3163" />
<line x1="440.2336pt" y1="381.2388pt" x2="411.5548pt" y2="422.1964pt" style="stroke:#de3163" />
<line x1="411.5548pt" y1="422.1964pt" x2="436.5548pt" y2="378.8952pt" style="stroke:#de3163" />
<line x1="436.5548pt" y1="378.8952pt" x2="415.4239pt" y2="424.2106pt" style="stroke:#de3163" />
<line x1="415.4239pt" y1="424.2106pt" x2="432.5249pt" y2="377.2260pt" style="stroke:#de3163" />
<line x1="432.5249pt" y1="377.2260pt" x2="419.5840pt" y2="425.5223pt" style="stroke:#de3163" />
<line x1="419.5840pt" y1="425.5223pt" x2="428.2665pt" y2="376.2819pt" style="stroke:#de3163" />
<line x1="428.2665pt" y1="376.2819pt" x2="423.9087pt" y2="426.0916pt" style="stroke:#de3163" />
<line x1="423.9087pt" y1="426.0916pt" x2="423.9088pt" y2="376.0916pt" style="stroke:#de3163" />
<line x1="423.9088pt" y1="376.0916pt" x2="428.2665pt" y2="425.9014pt" style="stroke:#de3163" />
<line x1="428.2665pt" y1="425.9014pt" x2="419.5842pt" y2="376.6610pt" style="stroke:#de3163" />
<line x1="419.5842pt" y1="376.6610pt" x2="432.5249pt" y2="424.9573pt" style="stroke:#de3163" />
<line x1="432.5249pt" y1="424.9573pt" x2="415.4239pt" y2="377.9727pt" style="stroke:#de3163" />
<line x1="415.4239pt" y1="377.9727pt" x2="436.5547pt" y2="423.2882pt" style="stroke:#de3163" />
<line x1="436.5547pt" y1="423.2882pt" x2="411.5549pt" y2="379.9868pt" style="stroke:#de3163" />
<line x1="411.5549pt" y1="379.9868pt" x2="440.2337pt" y2="420.9443pt" style="stroke:#de3163" />
<line x1="440.2337pt" y1="420.9443pt" x2="408.0944pt" y2="382.6420pt" style="stroke:#de3163" />
<line x1="408.0944pt" y1="382.6420pt" x2="443.4499pt" y2="417.9973pt" style="stroke:#de3163" />
<line x1="443.4499pt" y1="417.9973pt" x2="405.1477pt" y2="385.8579pt" style="stroke:#de3163" />
<line x1="405.1477pt" y1="385.8579pt" x2="446.1052pt" y2="414.5368pt" style="stroke:#de3163" />
<line x1="446.1052pt" y1="414.5368pt" x2="402.8039pt" y2="389.5369pt" style="stroke:#de3163" />
<line x1="402.8039pt" y1="389.5369pt" x2="448.1192pt" y2="410.6679pt" style="stroke:#de3163" />
<line x1="448.1192pt" y1="410.6679pt" x2="401.1346pt" y2="393.5667pt" style="stroke:#de3163" />
<line x1="401.1346pt" y1="393.5667pt" x2="449.4310pt" y2="406.5076pt" style="stroke:#de3163" />
<line x1="449.4310pt" y1="406.5076pt" x2="400.1906pt" y2="397.8251pt" style="stroke:#de3163" />
<line x1="400.1906pt" y1="397.8251pt" x2="450.0003pt" y2="402.1831pt" style="stroke:#de3163" />
<line x1="450.0003pt" y1="402.1831pt" x2="400.0003pt" y2="402.1828pt" style="stroke:#de3163" />
<line x1="400.0003pt" y1="402.1828pt" x2="449.8101pt" y2="397.8251pt" style="stroke:#de3163" />
<line x1="449.8101pt" y1="397.8251pt" x2="400.5696pt" y2="406.5073pt" style="stroke:#de3163" />
<line x1="400.5696pt" y1="406.5073pt" x2="448.8660pt" y2="393.5666pt" style="stroke:#de3163" />
<line x1="448.8660pt" y1="393.5666pt" x2="401.8814pt" y2="410.6675pt" style="stroke:#de3163" />
<line x1="401.8814pt" y1="410.6675pt" x2="447.1968pt" y2="389.5369pt" style="stroke:#de3163" />
<line x1="447.1968pt" y1="389.5369pt" x2="403.8954pt" y2="414.5365pt" style="stroke:#de3163" />
<line x1="403.8954pt" y1="414.5365pt" x2="444.8531pt" y2="385.8578pt" style="stroke:#de3163" />
<line x1="444.8531pt" y1="385.8578pt" x2="406.5509pt" y2="417.9973pt" style="stroke:#de3163" />
<line x1="406.5509pt" y1="417.9973pt" x2="441.9065pt" y2="382.6422pt" style="stroke:#de3163" />
<line x1="441.9065pt" y1="382.6422pt" x2="409.7670pt" y2="420.9444pt" style="stroke:#de3163" />
<line x1="409.7670pt" y1="420.9444pt" x2="438.4458pt" y2="379.9867pt" style="stroke:#de3163" />
<line x1="438.4458pt" y1="379.9867pt" x2="413.4454pt" y2="423.2878pt" style="stroke:#de3163" />
<line x1="413.4454pt" y1="423.2878pt" x2="434.5765pt" y2="377.9725pt" style="stroke:#de3163" />
<line x1="434.5765pt" y1="377.9725pt" x2="417.4756pt" y2="424.9571pt" style="stroke:#de3163" />
<line x1="417.4756pt" y1="424.9571pt" x2="430.4170pt" y2="376.6610pt" style="stroke:#de3163" />
<line x1="430.4170pt" y1="376.6610pt" x2="421.7343pt" y2="425.9013pt" style="stroke:#de3163" />
<line x1="421.7343pt" y1="425.9013pt" x2="426.0929pt" y2="376.0916pt" style="stroke:#de3163" />
<line x1="426.0929pt" y1="376.0916pt" x2="426.0931pt" y2="426.0916pt" style="stroke:#de3163" />
<line x1="426.0931pt" y1="426.0916pt" x2="421.7356pt" y2="376.2819pt" style="stroke:#de3163" />
<line x1="421.7356pt" y1="376.2819pt" x2="430.4180pt" y2="425.5223pt" style="stroke:#de3163" />
<line x1="430.4180pt" y1="425.5223pt" x2="417.4768pt" y2="377.2260pt" style="stroke:#de3163" />
<line x1="417.4768pt" y1="377.2260pt" x2="434.5776pt" y2="424.2108pt" style="stroke:#de3163" />
<line x1="434.5776pt" y1="424.2108pt" x2="413.4467pt" y2="378.8954pt" style="stroke:#de3163" />
<line x1="413.4467pt" y1="378.8954pt" x2="438.4468pt" y2="422.1965pt" style="stroke:#de3163" />
<line x1="438.4468pt" y1="422.1965pt" x2="409.7683pt" y2="381.2388pt" style="stroke:#de3163" />
<line x1="409.7683pt" y1="381.2388pt" x2="441.9076pt" y2="419.5410pt" style="stroke:#de3163" />
<line x1="441.9076pt" y1="419.5410pt" x2="406.5522pt" y2="384.1858pt" style="stroke:#de3163" />
<line x1="406.5522pt" y1="384.1858pt" x2="444.8542pt" y2="416.3255pt" style="stroke:#de3163" />
<line x1="444.8542pt" y1="416.3255pt" x2="403.8966pt" y2="387.6466pt" style="stroke:#de3163" />
<line x1="403.8966pt" y1="387.6466pt" x2="447.1979pt" y2="412.6465pt" style="stroke:#de3163" />
<line x1="447.1979pt" y1="412.6465pt" x2="401.8827pt" y2="391.5152pt" style="stroke:#de3163" />
<line x1="401.8827pt" y1="391.5152pt" x2="448.8673pt" y2="408.6163pt" style="stroke:#de3163" />
<line x1="448.8673pt" y1="408.6163pt" x2="400.5710pt" y2="395.6755pt" style="stroke:#de3163" />
<line x1="400.5710pt" y1="395.6755pt" x2="449.8113pt" y2="404.3583pt" style="stroke:#de3163" />
<line x1="449.8113pt" y1="404.3583pt" x2="400.0016pt" y2="400.0004pt" style="stroke:#de3163" />
</svg>
