<?xml version="1.0" encoding="UTF-8" standalone="no"?><!DOCTYPE svg PUBLIC "-//W3C//DTD SVG 1.1//EN" "http://www.w3.org/Graphics/SVG/1.1/DTD/svg11.dtd"><svg xmlns="http://www.w3.org/2000/svg" xmlns:xlink="http://www.w3.org/1999/xlink"><line stroke-width="0.05" x1="0.0000pt" y1="2.6092pt" x2="5.0000pt" y2="2.6092pt" style="stroke:#de3163" />
<line stroke-width="0.05" x1="5.0000pt" y1="2.6092pt" x2="0.0190pt" y2="2.1734pt" style="stroke:#de3163" />
<line stroke-width="0.05" x1="0.0190pt" y1="2.1734pt" x2="4.9431pt" y2="3.0416pt" style="stroke:#de3163" />
<line stroke-width="0.05" x1="4.9431pt" y1="3.0416pt" x2="0.1134pt" y2="1.7475pt" style="stroke:#de3163" />
<line stroke-width="0.05" x1="0.1134pt" y1="1.7475pt" x2="4.8119pt" y2="3.4576pt" style="stroke:#de3163" />
<line stroke-width="0.05" x1="4.8119pt" y1="3.4576pt" x2="0.2804pt" y2="1.3445pt" style="stroke:#de3163" />
<line stroke-width="0.05" x1="0.2804pt" y1="1.3445pt" x2="4.6105pt" y2="3.8445pt" style="stroke:#de3163" />
<line stroke-width="0.05" x1="4.6105pt" y1="3.8445pt" x2="0.5147pt" y2="0.9767pt" style="stroke:#de3163" />
<line stroke-width="0.05" x1="0.5147pt" y1="0.9767pt" x2="4.3450pt" y2="4.1906pt" style="stroke:#de3163" />
<line stroke-width="0.05" x1="4.3450pt" y1="4.1906pt" x2="0.8094pt" y2="0.6551pt" style="stroke:#de3163" />
<line stroke-width="0.05" x1="0.8094pt" y1="0.6551pt" x2="4.0234pt" y2="4.4853pt" style="stroke:#de3163" />
<line stroke-width="0.05" x1="4.0234pt" y1="4.4853pt" x2="1.1555pt" y2="0.3895pt" style="stroke:#de3163" />
<line stroke-width="0.05" x1="1.1555pt" y1="0.3895pt" x2="3.6555pt" y2="4.7196pt" style="stroke:#de3163" />
<line stroke-width="0.05" x1="3.6555pt" y1="4.7196pt" x2="1.5424pt" y2="0.1881pt" style="stroke:#de3163" />
<line stroke-width="0.05" x1="1.5424pt" y1="0.1881pt" x2="3.2525pt" y2="4.8866pt" style="stroke:#de3163" />
<line stroke-width="0.05" x1="3.2525pt" y1="4.8866pt" x2="1.9584pt" y2="0.0569pt" style="stroke:#de3163" />
<line stroke-width="0.05" x1="1.9584pt" y1="0.0569pt" x2="2.8266pt" y2="4.9810pt" style="stroke:#de3163" />
<line stroke-width="0.05" x1="2.8266pt" y1="4.9810pt" x2="2.3909pt" y2="0.0000pt" style="stroke:#de3163" />
<line stroke-width="0.05" x1="2.3909pt" y1="0.0000pt" x2="2.3909pt" y2="5.0000pt" style="stroke:#de3163" />
<line stroke-width="0.05" x1="2.3909pt" y1="5.0000pt" x2="2.8266pt" y2="0.0190pt" style="stroke:#de3163" />
<line stroke-width="0.05" x1="2.8266pt" y1="0.0190pt" x2="1.9584pt" y2="4.9431pt" style="stroke:#de3163" />
<line stroke-width="0.05" x1="1.9584pt" y1="4.9431pt" x2="3.2525pt" y2="0.1134pt" style="stroke:#de3163" />
<line stroke-width="0.05" x1="3.2525pt" y1="0.1134pt" x2="1.5424pt" y2="4.8119pt" style="stroke:#de3163" />
<line stroke-width="0.05" x1="1.5424pt" y1="4.8119pt" x2="3.6555pt" y2="0.2803pt" style="stroke:#de3163" />
<line stroke-width="0.05" x1="3.6555pt" y1="0.2803pt" x2="1.1555pt" y2="4.6105pt" style="stroke:#de3163" />
<line stroke-width="0.05" x1="1.1555pt" y1="4.6105pt" x2="4.0234pt" y2="0.5147pt" style="stroke:#de3163" />
<line stroke-width="0.05" x1="4.0234pt" y1="0.5147pt" x2="0.8094pt" y2="4.3450pt" style="stroke:#de3163" />
<line stroke-width="0.05" x1="0.8094pt" y1="4.3450pt" x2="4.3450pt" y2="0.8094pt" style="stroke:#de3163" />
<line stroke-width="0.05" x1="4.3450pt" y1="0.8094pt" x2="0.5148pt" y2="4.0234pt" style="stroke:#de3163" />
<line stroke-width="0.05" x1="0.5148pt" y1="4.0234pt" x2="4.6105pt" y2="1.1555pt" style="stroke:#de3163" />
<line stroke-width="0.05" x1="4.6105pt" y1="1.1555pt" x2="0.2804pt" y2="3.6555pt" style="stroke:#de3163" />
<line stroke-width="0.05" x1="0.2804pt" y1="3.6555pt" x2="4.8119pt" y2="1.5424pt" style="stroke:#de3163" />
<line stroke-width="0.05" x1="4.8119pt" y1="1.5424pt" x2="0.1135pt" y2="3.2525pt" style="stroke:#de3163" />
<line stroke-width="0.05" x1="0.1135pt" y1="3.2525pt" x2="4.9431pt" y2="1.9584pt" style="stroke:#de3163" />
<line stroke-width="0.05" x1="4.9431pt" y1="1.9584pt" x2="0.0191pt" y2="2.8267pt" style="stroke:#de3163" />
<line stroke-width="0.05" x1="0.0191pt" y1="2.8267pt" x2="5.0000pt" y2="2.3909pt" style="stroke:#de3163" />
<line stroke-width="0.05" x1="5.0000pt" y1="2.3909pt" x2="0.0000pt" y2="2.3909pt" style="stroke:#de3163" />
<line stroke-width="0.05" x1="0.0000pt" y1="2.3909pt" x2="4.9810pt" y2="2.8267pt" style="stroke:#de3163" />
<line stroke-width="0.05" x1="4.9810pt" y1="2.8267pt" x2="0.0570pt" y2="1.9584pt" style="stroke:#de3163" />
<line stroke-width="0.05" x1="0.0570pt" y1="1.9584pt" x2="4.8866pt" y2="3.2525pt" style="stroke:#de3163" />
<line stroke-width="0.05" x1="4.8866pt" y1="3.2525pt" x2="0.1881pt" y2="1.5424pt" style="stroke:#de3163" />
<line stroke-width="0.05" x1="0.1881pt" y1="1.5424pt" x2="4.7197pt" y2="3.6555pt" style="stroke:#de3163" />
<line stroke-width="0.05" x1="4.7197pt" y1="3.6555pt" x2="0.3895pt" y2="1.1555pt" style="stroke:#de3163" />
<line stroke-width="0.05" x1="0.3895pt" y1="1.1555pt" x2="4.4853pt" y2="4.0234pt" style="stroke:#de3163" />
<line stroke-width="0.05" x1="4.4853pt" y1="4.0234pt" x2="0.6551pt" y2="0.8094pt" style="stroke:#de3163" />
<line stroke-width="0.05" x1="0.6551pt" y1="0.8094pt" x2="4.1907pt" y2="4.3449pt" style="stroke:#de3163" />
<line stroke-width="0.05" x1="4.1907pt" y1="4.3449pt" x2="0.9767pt" y2="0.5147pt" style="stroke:#de3163" />
<line stroke-width="0.05" x1="0.9767pt" y1="0.5147pt" x2="3.8446pt" y2="4.6105pt" style="stroke:#de3163" />
<line stroke-width="0.05" x1="3.8446pt" y1="4.6105pt" x2="1.3445pt" y2="0.2804pt" style="stroke:#de3163" />
<line stroke-width="0.05" x1="1.3445pt" y1="0.2804pt" x2="3.4576pt" y2="4.8119pt" style="stroke:#de3163" />
<line stroke-width="0.05" x1="3.4576pt" y1="4.8119pt" x2="1.7476pt" y2="0.1135pt" style="stroke:#de3163" />
<line stroke-width="0.05" x1="1.7476pt" y1="0.1135pt" x2="3.0417pt" y2="4.9431pt" style="stroke:#de3163" />
<line stroke-width="0.05" x1="3.0417pt" y1="4.9431pt" x2="2.1734pt" y2="0.0190pt" style="stroke:#de3163" />
<line stroke-width="0.05" x1="2.1734pt" y1="0.0190pt" x2="2.6093pt" y2="5.0000pt" style="stroke:#de3163" />
<line stroke-width="0.05" x1="2.6093pt" y1="5.0000pt" x2="2.6093pt" y2="0.0000pt" style="stroke:#de3163" />
<line stroke-width="0.05" x1="2.6093pt" y1="0.0000pt" x2="2.1736pt" y2="4.9810pt" style="stroke:#de3163" />
<line stroke-width="0.05" x1="2.1736pt" y1="4.9810pt" x2="3.0418pt" y2="0.0569pt" style="stroke:#de3163" />
<line stroke-width="0.05" x1="3.0418pt" y1="0.0569pt" x2="1.7477pt" y2="4.8866pt" style="stroke:#de3163" />
<line stroke-width="0.05" x1="1.7477pt" y1="4.8866pt" x2="3.4577pt" y2="0.1881pt" style="stroke:#de3163" />
<line stroke-width="0.05" x1="3.4577pt" y1="0.1881pt" x2="1.3447pt" y2="4.7196pt" style="stroke:#de3163" />
<line stroke-width="0.05" x1="1.3447pt" y1="4.7196pt" x2="3.8447pt" y2="0.3895pt" style="stroke:#de3163" />
<line stroke-width="0.05" x1="3.8447pt" y1="0.3895pt" x2="0.9768pt" y2="4.4853pt" style="stroke:#de3163" />
<line stroke-width="0.05" x1="0.9768pt" y1="4.4853pt" x2="4.1908pt" y2="0.6551pt" style="stroke:#de3163" />
<line stroke-width="0.05" x1="4.1908pt" y1="0.6551pt" x2="0.6552pt" y2="4.1906pt" style="stroke:#de3163" />
<line stroke-width="0.05" x1="0.6552pt" y1="4.1906pt" x2="4.4854pt" y2="0.9766pt" style="stroke:#de3163" />
<line stroke-width="0.05" x1="4.4854pt" y1="0.9766pt" x2="0.3897pt" y2="3.8445pt" style="stroke:#de3163" />
<line stroke-width="0.05" x1="0.3897pt" y1="3.8445pt" x2="4.7198pt" y2="1.3445pt" style="stroke:#de3163" />
<line stroke-width="0.05" x1="4.7198pt" y1="1.3445pt" x2="0.1883pt" y2="3.4577pt" style="stroke:#de3163" />
<line stroke-width="0.05" x1="0.1883pt" y1="3.4577pt" x2="4.8867pt" y2="1.7475pt" style="stroke:#de3163" />
<line stroke-width="0.05" x1="4.8867pt" y1="1.7475pt" x2="0.0571pt" y2="3.0416pt" style="stroke:#de3163" />
<line stroke-width="0.05" x1="0.0571pt" y1="3.0416pt" x2="4.9811pt" y2="2.1733pt" style="stroke:#de3163" />
<line stroke-width="0.05" x1="4.9811pt" y1="2.1733pt" x2="0.0002pt" y2="2.6091pt" style="stroke:#de3163" />
</svg>
