<?xml version="1.0" encoding="UTF-8" standalone="no"?><!DOCTYPE svg PUBLIC "-//W3C//DTD SVG 1.1//EN" "http://www.w3.org/Graphics/SVG/1.1/DTD/svg11.dtd"><svg xmlns="http://www.w3.org/2000/svg" xmlns:xlink="http://www.w3.org/1999/xlink"><line stroke-width="0.05" x1="107.8163pt" y1="202.9468pt" x2="108.8161pt" y2="202.9294pt" style="stroke:#0000FF" />
<line stroke-width="0.05" x1="108.8161pt" y1="202.9294pt" x2="119.8739pt" y2="201.9620pt" style="stroke:#0000FF" />
<line stroke-width="0.05" x1="119.8739pt" y1="201.9620pt" x2="134.2624pt" y2="198.9036pt" style="stroke:#0000FF" />
<line stroke-width="0.05" x1="134.2624pt" y1="198.9036pt" x2="150.5898pt" y2="192.3069pt" style="stroke:#0000FF" />
<line stroke-width="0.05" x1="150.5898pt" y1="192.3069pt" x2="167.2763pt" y2="180.6229pt" style="stroke:#0000FF" />
<line stroke-width="0.05" x1="167.2763pt" y1="180.6229pt" x2="181.8619pt" y2="162.6111pt" style="stroke:#0000FF" />
<line stroke-width="0.05" x1="181.8619pt" y1="162.6111pt" x2="190.7953pt" y2="138.0668pt" style="stroke:#0000FF" />
<line stroke-width="0.05" x1="190.7953pt" y1="138.0668pt" x2="189.7743pt" y2="108.8268pt" style="stroke:#0000FF" />
<line stroke-width="0.05" x1="189.7743pt" y1="108.8268pt" x2="174.9569pt" y2="79.7461pt" style="stroke:#0000FF" />
<line stroke-width="0.05" x1="174.9569pt" y1="79.7461pt" x2="145.2201pt" y2="58.9242pt" style="stroke:#0000FF" />
<line stroke-width="0.05" x1="145.2201pt" y1="58.9242pt" x2="105.0290pt" y2="56.1138pt" style="stroke:#0000FF" />
<line stroke-width="0.05" x1="105.0290pt" y1="56.1138pt" x2="66.3690pt" y2="78.4341pt" style="stroke:#0000FF" />
<line stroke-width="0.05" x1="66.3690pt" y1="78.4341pt" x2="47.0673pt" y2="123.9061pt" style="stroke:#0000FF" />
<line stroke-width="0.05" x1="47.0673pt" y1="123.9061pt" x2="63.0335pt" y2="176.1290pt" style="stroke:#0000FF" />
<line stroke-width="0.05" x1="63.0335pt" y1="176.1290pt" x2="115.2721pt" y2="206.2890pt" style="stroke:#0000FF" />
<line stroke-width="0.05" x1="115.2721pt" y1="206.2890pt" x2="179.2773pt" y2="187.9358pt" style="stroke:#0000FF" />
<line stroke-width="0.05" x1="179.2773pt" y1="187.9358pt" x2="210.3230pt" y2="121.3580pt" style="stroke:#0000FF" />
<line stroke-width="0.05" x1="210.3230pt" y1="121.3580pt" x2="173.5450pt" y2="49.1772pt" style="stroke:#0000FF" />
<line stroke-width="0.05" x1="173.5450pt" y1="49.1772pt" x2="85.1102pt" y2="36.7485pt" style="stroke:#0000FF" />
<line stroke-width="0.05" x1="85.1102pt" y1="36.7485pt" x2="21.8495pt" y2="112.1396pt" style="stroke:#0000FF" />
<line stroke-width="0.05" x1="21.8495pt" y1="112.1396pt" x2="60.7074pt" y2="213.3679pt" style="stroke:#0000FF" />
<line stroke-width="0.05" x1="60.7074pt" y1="213.3679pt" x2="179.6900pt" y2="223.7775pt" style="stroke:#0000FF" />
<line stroke-width="0.05" x1="179.6900pt" y1="223.7775pt" x2="241.4428pt" y2="107.6371pt" style="stroke:#0000FF" />
<line stroke-width="0.05" x1="241.4428pt" y1="107.6371pt" x2="144.5260pt" y2="0.0000pt" style="stroke:#0000FF" />
<line stroke-width="0.05" x1="144.5260pt" y1="0.0000pt" x2="0.0000pt" y2="67.3938pt" style="stroke:#0000FF" />
<line stroke-width="0.05" x1="0.0000pt" y1="67.3938pt" x2="33.4968pt" y2="239.7189pt" style="stroke:#0000FF" />
<line stroke-width="0.05" x1="33.4968pt" y1="239.7189pt" x2="226.7340pt" y2="239.7189pt" style="stroke:#0000FF" />
</svg>
